<?xml version="1.0" encoding="UTF-8"?>
<svg id="Layer_1" data-name="Layer 1" xmlns="http://www.w3.org/2000/svg" viewBox="0 0 1024 1024">
  <defs>
    <style>
      .cls-1 {
        fill: #fff;
        stroke-width: 0px;
      }
    </style>
  </defs>
  <path class="cls-1" d="m456.42,108.74c4.97,0,9.92.5,14.79,1.49,106.79,21.69,213.54,43.55,320.39,64.95,50.14,10.04,100.56,18.76,150.7,28.78,50.95,10.18,79.2,39.98,79.61,92.19,1.35,172.62,1.59,345.28-.11,517.9-.56,56.52-32.13,83.91-88.72,82.25-166.45-4.89-332.87-11.1-499.31-16.45-42.3-1.36-57.31-30.54-65.71-64.52-4.13-16.72-2.85-34.94-2.87-52.49-.17-177.43.8-354.87-.72-532.29-.22-26.17,2.15-50.66,10.29-73.07,10.64-29.3,38.57-48.74,69.75-48.74h11.91Zm538.35,446.16c0-81.5-.54-163.01.23-244.51.38-39.98-16.23-61.11-57.26-68-149.71-25.14-299.11-52.11-448.52-78.98-62.63-11.26-81.34,3.18-81.91,67.93-.63,71.91-.14,143.83-.14,215.74,0,107.07-.46,214.15.16,321.21.28,49.08,16.7,67.96,58.95,69.67,155.16,6.26,310.33,12.23,465.5,17.96,49.64,1.83,62.25-9.95,62.82-61.33.87-79.89.23-159.81.18-239.71Z"/>
  <path class="cls-1" d="m313.35,836c2.96-.34,5.19-2.84,5.19-5.82,0-98.92,0-197.83,0-296.75,0-115.15-.38-230.3.46-345.45.03-4.62.27-16.02,1.49-19.78,2.19-6.76,11.63-6.01,11.62,1.1-.08,208.68-.47,423.39-1.31,630.91-.1,25.58-3.44,67.13,26.14,79.29,3.48,1.43,3.44,7.5-.3,7.9-80.4,8.59-169.46,18.76-254.2,25.65-50.66,4.12-78.08-26.21-79.76-85.69-1.94-68.72-1.34-137.52-1.32-206.29.02-79.96.96-159.92.79-239.88-.1-45.55,16.41-78.17,59.64-99.78,58.44-29.22,108.77-63.93,162.26-94.73,5.7-3.28,12.69,1.24,12.14,7.79-2.33,27.45-2.3,55.3-2.41,82.01-.76,171.11-.06,342.24.99,513.35.08,13.16-.41,19.62.14,34.33.29,7.75,6.44,14.01,14.18,14.41.95.05,1.87.1,2.76.13,3.31.14,6.06-2.51,6.09-5.82.07-10.03-.68-20.82-.68-30.48.1-198.32,1.89-395.02,2.73-593.33.01-2.63.2-20.26.55-22.88.95-7.1,11.46-6.49,11.7.68,3.14,91.94,3.11,197.01.89,287.49-2.63,107.09-.98,214.3-.03,321.44.08,8.93-.15,15.7.26,24.5.45,9.66,9,16.94,18.61,15.86.47-.05.93-.1,1.37-.16Z"/>
  <path class="cls-1" d="m248.85,912.12c190.37-27.01,381.89-17.66,581.6-7.97,6.35.31,6.48,13.99.14,14.56-134.7,11.98-449.36,15.83-580.53,7.05-6.11-.41-7.28-12.77-1.21-13.63Z"/>
  <path class="cls-1" d="m463.68,496.92c-.02-68.76-.25-137.53.05-206.29.3-69.85,14.91-81.32,82.99-69.21,113.4,20.17,226.95,39.5,340.42,59.27,49.82,8.68,65.4,25.92,65.65,77.16.59,123.13.69,246.27-.06,369.4-.34,55.12-18.76,71.6-73.11,69.26-116.83-5.03-233.65-10.31-350.48-15.39-48.37-2.1-64.77-18.3-65.26-68.32-.7-71.95-.18-143.92-.2-215.88Zm446.65,29.23c-1.42-23.91-1.89-47.92-4.44-71.71-10.06-93.77-53.09-149.27-138.66-166.43-78.16-15.68-157.89-23.53-236.9-35.02-26.42-3.84-38.51,6.17-38.38,33.74.65,139.01.76,278.02.43,417.03-.06,26.44,12.17,37.32,37.63,38.1,76.79,2.36,153.55,5.62,230.34,8.04,41.3,1.31,73.57-16.1,99.69-47.82,42.51-51.62,49.09-112.74,50.28-175.93Z"/>
</svg>